<mxfile modified="2021-08-09T14:00:21.735Z" host="app.diagrams.net" agent="5.0 (Macintosh; Intel Mac OS X 10_15_7) AppleWebKit/537.36 (KHTML, like Gecko) Chrome/92.0.4515.131 Safari/537.36" etag="12a7xo8kwZGwWnJGVBUZ" version="14.9.5" type="github">
  <diagram id="4hxquCVOutXeo7L2m3s6" name="第 1 页">
    <mxGraphModel dx="2633" dy="1062" grid="0" gridSize="10" guides="1" tooltips="1" connect="1" arrows="1" fold="1" page="0" pageScale="1" pageWidth="827" pageHeight="583" math="0" shadow="0">
      <root>
        <mxCell id="0" />
        <mxCell id="1" parent="0" />
        <mxCell id="aMiWhFS1qGmrGpWCRoRi-13" value="" style="rounded=0;whiteSpace=wrap;html=1;strokeWidth=2;fontSize=17;strokeColor=none;fillColor=#D1D1D1;" parent="1" vertex="1">
          <mxGeometry x="-594" y="121" width="1225" height="115" as="geometry" />
        </mxCell>
        <mxCell id="aMiWhFS1qGmrGpWCRoRi-19" style="edgeStyle=orthogonalEdgeStyle;rounded=0;orthogonalLoop=1;jettySize=auto;html=1;entryX=0;entryY=0.5;entryDx=0;entryDy=0;strokeWidth=2;fontSize=17;" parent="1" source="aMiWhFS1qGmrGpWCRoRi-1" target="aMiWhFS1qGmrGpWCRoRi-2" edge="1">
          <mxGeometry relative="1" as="geometry" />
        </mxCell>
        <mxCell id="aMiWhFS1qGmrGpWCRoRi-1" value="需求分析" style="rounded=1;whiteSpace=wrap;html=1;strokeWidth=2;fontSize=17;" parent="1" vertex="1">
          <mxGeometry x="-420" y="148.5" width="124" height="60" as="geometry" />
        </mxCell>
        <mxCell id="aMiWhFS1qGmrGpWCRoRi-20" style="edgeStyle=orthogonalEdgeStyle;rounded=0;orthogonalLoop=1;jettySize=auto;html=1;entryX=0;entryY=0.5;entryDx=0;entryDy=0;strokeWidth=2;fontSize=17;" parent="1" source="aMiWhFS1qGmrGpWCRoRi-2" target="aMiWhFS1qGmrGpWCRoRi-3" edge="1">
          <mxGeometry relative="1" as="geometry" />
        </mxCell>
        <mxCell id="aMiWhFS1qGmrGpWCRoRi-2" value="设计与技术选型" style="rounded=1;whiteSpace=wrap;html=1;strokeWidth=2;fontSize=17;" parent="1" vertex="1">
          <mxGeometry x="-270" y="148.5" width="124" height="60" as="geometry" />
        </mxCell>
        <mxCell id="aMiWhFS1qGmrGpWCRoRi-21" style="edgeStyle=orthogonalEdgeStyle;rounded=0;orthogonalLoop=1;jettySize=auto;html=1;entryX=0;entryY=0.5;entryDx=0;entryDy=0;strokeWidth=2;fontSize=17;" parent="1" source="aMiWhFS1qGmrGpWCRoRi-3" target="aMiWhFS1qGmrGpWCRoRi-5" edge="1">
          <mxGeometry relative="1" as="geometry" />
        </mxCell>
        <mxCell id="aMiWhFS1qGmrGpWCRoRi-3" value="开发" style="rounded=1;whiteSpace=wrap;html=1;strokeWidth=2;fontSize=17;" parent="1" vertex="1">
          <mxGeometry x="-119" y="148.5" width="124" height="60" as="geometry" />
        </mxCell>
        <mxCell id="aMiWhFS1qGmrGpWCRoRi-23" style="edgeStyle=orthogonalEdgeStyle;rounded=0;orthogonalLoop=1;jettySize=auto;html=1;entryX=0;entryY=0.5;entryDx=0;entryDy=0;strokeWidth=2;fontSize=17;" parent="1" source="aMiWhFS1qGmrGpWCRoRi-4" target="aMiWhFS1qGmrGpWCRoRi-6" edge="1">
          <mxGeometry relative="1" as="geometry" />
        </mxCell>
        <mxCell id="aMiWhFS1qGmrGpWCRoRi-4" value="部署上线" style="rounded=1;whiteSpace=wrap;html=1;strokeWidth=2;fontSize=17;" parent="1" vertex="1">
          <mxGeometry x="181" y="148.5" width="124" height="60" as="geometry" />
        </mxCell>
        <mxCell id="aMiWhFS1qGmrGpWCRoRi-22" style="edgeStyle=orthogonalEdgeStyle;rounded=0;orthogonalLoop=1;jettySize=auto;html=1;entryX=0;entryY=0.5;entryDx=0;entryDy=0;strokeWidth=2;fontSize=17;" parent="1" source="aMiWhFS1qGmrGpWCRoRi-5" target="aMiWhFS1qGmrGpWCRoRi-4" edge="1">
          <mxGeometry relative="1" as="geometry" />
        </mxCell>
        <mxCell id="aMiWhFS1qGmrGpWCRoRi-5" value="联调" style="rounded=1;whiteSpace=wrap;html=1;strokeWidth=2;fontSize=17;" parent="1" vertex="1">
          <mxGeometry x="31" y="148.5" width="124" height="60" as="geometry" />
        </mxCell>
        <mxCell id="aMiWhFS1qGmrGpWCRoRi-24" style="edgeStyle=orthogonalEdgeStyle;rounded=0;orthogonalLoop=1;jettySize=auto;html=1;entryX=0;entryY=0.5;entryDx=0;entryDy=0;strokeWidth=2;fontSize=17;" parent="1" source="aMiWhFS1qGmrGpWCRoRi-6" target="aMiWhFS1qGmrGpWCRoRi-9" edge="1">
          <mxGeometry relative="1" as="geometry" />
        </mxCell>
        <mxCell id="aMiWhFS1qGmrGpWCRoRi-6" value="维护" style="rounded=1;whiteSpace=wrap;html=1;strokeWidth=2;fontSize=17;" parent="1" vertex="1">
          <mxGeometry x="331" y="148.5" width="124" height="60" as="geometry" />
        </mxCell>
        <mxCell id="aMiWhFS1qGmrGpWCRoRi-18" style="edgeStyle=orthogonalEdgeStyle;rounded=0;orthogonalLoop=1;jettySize=auto;html=1;entryX=0;entryY=0.5;entryDx=0;entryDy=0;strokeWidth=2;fontSize=17;" parent="1" source="aMiWhFS1qGmrGpWCRoRi-8" target="aMiWhFS1qGmrGpWCRoRi-1" edge="1">
          <mxGeometry relative="1" as="geometry" />
        </mxCell>
        <mxCell id="aMiWhFS1qGmrGpWCRoRi-8" value="Start" style="ellipse;whiteSpace=wrap;html=1;strokeWidth=2;fontSize=17;" parent="1" vertex="1">
          <mxGeometry x="-570" y="148.5" width="124" height="60" as="geometry" />
        </mxCell>
        <mxCell id="aMiWhFS1qGmrGpWCRoRi-9" value="End" style="ellipse;whiteSpace=wrap;html=1;strokeWidth=2;fontSize=17;" parent="1" vertex="1">
          <mxGeometry x="481.227294921875" y="148.5" width="124" height="60" as="geometry" />
        </mxCell>
        <mxCell id="FucWDrGyaG9aZw4Tequs-2" value="" style="curved=1;endArrow=classic;html=1;strokeWidth=2;exitX=0.25;exitY=1;exitDx=0;exitDy=0;entryX=0;entryY=0;entryDx=0;entryDy=0;dashed=1;" edge="1" parent="1" source="aMiWhFS1qGmrGpWCRoRi-3" target="aMiWhFS1qGmrGpWCRoRi-14">
          <mxGeometry width="50" height="50" relative="1" as="geometry">
            <mxPoint x="-533" y="368" as="sourcePoint" />
            <mxPoint x="-483" y="318" as="targetPoint" />
            <Array as="points">
              <mxPoint x="-254" y="254" />
            </Array>
          </mxGeometry>
        </mxCell>
        <mxCell id="FucWDrGyaG9aZw4Tequs-4" value="" style="curved=1;endArrow=classic;html=1;strokeWidth=2;exitX=0.75;exitY=1;exitDx=0;exitDy=0;entryX=1;entryY=0;entryDx=0;entryDy=0;dashed=1;" edge="1" parent="1" source="aMiWhFS1qGmrGpWCRoRi-3" target="aMiWhFS1qGmrGpWCRoRi-14">
          <mxGeometry width="50" height="50" relative="1" as="geometry">
            <mxPoint x="-78" y="218.5" as="sourcePoint" />
            <mxPoint x="-318" y="320" as="targetPoint" />
            <Array as="points">
              <mxPoint x="99" y="248" />
            </Array>
          </mxGeometry>
        </mxCell>
        <mxCell id="FucWDrGyaG9aZw4Tequs-7" value="" style="group" vertex="1" connectable="0" parent="1">
          <mxGeometry x="-345" y="310" width="853.5" height="115" as="geometry" />
        </mxCell>
        <mxCell id="aMiWhFS1qGmrGpWCRoRi-14" value="" style="rounded=0;whiteSpace=wrap;html=1;strokeWidth=2;fontSize=17;strokeColor=none;fillColor=#D1D1D1;" parent="FucWDrGyaG9aZw4Tequs-7" vertex="1">
          <mxGeometry width="534" height="115" as="geometry" />
        </mxCell>
        <mxCell id="FucWDrGyaG9aZw4Tequs-6" value="" style="group" vertex="1" connectable="0" parent="FucWDrGyaG9aZw4Tequs-7">
          <mxGeometry x="39.5" y="27.5" width="814" height="60" as="geometry" />
        </mxCell>
        <mxCell id="aMiWhFS1qGmrGpWCRoRi-10" value="脚手架" style="rounded=1;whiteSpace=wrap;html=1;strokeWidth=2;fontSize=17;" parent="FucWDrGyaG9aZw4Tequs-6" vertex="1">
          <mxGeometry width="124" height="60" as="geometry" />
        </mxCell>
        <mxCell id="aMiWhFS1qGmrGpWCRoRi-11" value="Coding" style="rounded=1;whiteSpace=wrap;html=1;strokeWidth=2;fontSize=17;" parent="FucWDrGyaG9aZw4Tequs-6" vertex="1">
          <mxGeometry x="332.5" width="124" height="60" as="geometry" />
        </mxCell>
        <mxCell id="aMiWhFS1qGmrGpWCRoRi-12" value="Code Review" style="rounded=1;whiteSpace=wrap;html=1;strokeWidth=2;fontSize=17;" parent="FucWDrGyaG9aZw4Tequs-6" vertex="1">
          <mxGeometry x="524.5" width="124" height="60" as="geometry" />
        </mxCell>
        <mxCell id="aMiWhFS1qGmrGpWCRoRi-27" style="edgeStyle=orthogonalEdgeStyle;rounded=0;orthogonalLoop=1;jettySize=auto;html=1;entryX=0;entryY=0.5;entryDx=0;entryDy=0;strokeWidth=2;fontSize=17;" parent="FucWDrGyaG9aZw4Tequs-6" source="aMiWhFS1qGmrGpWCRoRi-11" target="aMiWhFS1qGmrGpWCRoRi-12" edge="1">
          <mxGeometry relative="1" as="geometry" />
        </mxCell>
        <mxCell id="aMiWhFS1qGmrGpWCRoRi-15" value="自测" style="rounded=1;whiteSpace=wrap;html=1;strokeWidth=2;fontSize=17;" parent="FucWDrGyaG9aZw4Tequs-6" vertex="1">
          <mxGeometry x="690" width="124" height="60" as="geometry" />
        </mxCell>
        <mxCell id="aMiWhFS1qGmrGpWCRoRi-28" style="edgeStyle=orthogonalEdgeStyle;rounded=0;orthogonalLoop=1;jettySize=auto;html=1;entryX=0;entryY=0.5;entryDx=0;entryDy=0;strokeWidth=2;fontSize=17;" parent="FucWDrGyaG9aZw4Tequs-6" source="aMiWhFS1qGmrGpWCRoRi-12" target="aMiWhFS1qGmrGpWCRoRi-15" edge="1">
          <mxGeometry relative="1" as="geometry" />
        </mxCell>
        <mxCell id="aMiWhFS1qGmrGpWCRoRi-26" style="edgeStyle=orthogonalEdgeStyle;rounded=0;orthogonalLoop=1;jettySize=auto;html=1;entryX=0;entryY=0.5;entryDx=0;entryDy=0;strokeWidth=2;fontSize=17;" parent="FucWDrGyaG9aZw4Tequs-6" source="aMiWhFS1qGmrGpWCRoRi-17" target="aMiWhFS1qGmrGpWCRoRi-11" edge="1">
          <mxGeometry relative="1" as="geometry" />
        </mxCell>
        <mxCell id="aMiWhFS1qGmrGpWCRoRi-17" value="Mock" style="rounded=1;whiteSpace=wrap;html=1;strokeWidth=2;fontSize=17;" parent="FucWDrGyaG9aZw4Tequs-6" vertex="1">
          <mxGeometry x="166.5" width="124" height="60" as="geometry" />
        </mxCell>
        <mxCell id="aMiWhFS1qGmrGpWCRoRi-25" style="edgeStyle=orthogonalEdgeStyle;rounded=0;orthogonalLoop=1;jettySize=auto;html=1;entryX=0;entryY=0.5;entryDx=0;entryDy=0;strokeWidth=2;fontSize=17;" parent="FucWDrGyaG9aZw4Tequs-6" source="aMiWhFS1qGmrGpWCRoRi-10" target="aMiWhFS1qGmrGpWCRoRi-17" edge="1">
          <mxGeometry relative="1" as="geometry" />
        </mxCell>
        <mxCell id="FucWDrGyaG9aZw4Tequs-11" value="" style="edgeStyle=elbowEdgeStyle;elbow=vertical;endArrow=classic;html=1;strokeWidth=2;dashed=1;" edge="1" parent="1">
          <mxGeometry width="50" height="50" relative="1" as="geometry">
            <mxPoint x="466" y="176" as="sourcePoint" />
            <mxPoint x="-136" y="176" as="targetPoint" />
            <Array as="points">
              <mxPoint x="168" y="65" />
            </Array>
          </mxGeometry>
        </mxCell>
      </root>
    </mxGraphModel>
  </diagram>
</mxfile>
